<svg width="178" height="60" viewBox="0 0 178 60" fill="none" xmlns="http://www.w3.org/2000/svg">
<path d="M24.1451 37.8555V38.3153V38.7832V39.243V40.179H50.6301V39.243V38.7832V38.3153V37.8555H24.1451Z" fill="#4C3FFF"/>
<path d="M31.2663 23.1507C30.5229 23.1182 29.7834 23.2752 29.117 23.6069C28.4506 23.9386 27.8791 24.4341 27.4558 25.0472V23.4052H24.055V35.4333H27.4558V29.3823C27.4225 28.9858 27.4767 28.5868 27.6148 28.2136C27.7528 27.8405 27.9712 27.5024 28.2543 27.2234C28.5375 26.9443 28.8786 26.7312 29.2533 26.5992C29.6279 26.4671 30.0271 26.4195 30.4222 26.4594C32.2578 26.755 32.5856 28.6023 32.5856 30.1623V35.4333H35.9864V29.3823C35.9864 24.5218 33.6673 23.1507 31.2663 23.1507Z" fill="black"/>
<path d="M49.86 23.3809H45.312L41.3949 27.4286V23.3809H38.0106V35.409H41.3949V31.8293L42.3455 30.8769L45.8692 35.409H50.2943L44.722 28.5123L49.86 23.3809Z" fill="black"/>
<path d="M12.6317 23.1514V24.0299C12.9489 24.0794 13.2596 24.1648 13.5576 24.2844L13.7789 24.3911C13.8362 24.4255 13.8909 24.464 13.9428 24.5061C14.1477 24.7449 14.3014 25.0234 14.3945 25.3242C14.4875 25.625 14.5179 25.9418 14.4836 26.2549V37.0104C14.5187 37.3222 14.4887 37.6379 14.3956 37.9376C14.3025 38.2372 14.1483 38.5142 13.9428 38.751C13.8912 38.7959 13.8364 38.8371 13.7789 38.8742L13.5576 38.9809C13.2583 39.0967 12.9481 39.182 12.6317 39.2354V40.1139H21.3999V39.2354C20.9121 39.1767 20.4484 38.9897 20.056 38.6935C19.7537 38.2364 19.6257 37.6856 19.6954 37.1417V26.1235C19.6257 25.5796 19.7537 25.0288 20.056 24.5717C20.4484 24.2755 20.9121 24.0886 21.3999 24.0299V23.1514H12.6317Z" fill="black"/>
<path d="M99.8473 38.2743C99.7244 38.3321 99.5896 38.3603 99.4539 38.3565C99.3616 38.3511 99.272 38.3227 99.1933 38.274C99.1147 38.2252 99.0493 38.1576 99.0032 38.0773C98.8592 37.883 98.7842 37.646 98.7902 37.404V28.4712C98.7902 26.2818 98.0964 24.782 96.7087 23.9719C95.1015 23.118 93.2987 22.7019 91.4806 22.765C89.7576 22.704 88.0527 23.1338 86.5638 24.0048C85.9564 24.3284 85.449 24.8124 85.0965 25.4043C84.7441 25.9963 84.56 26.6736 84.5643 27.3628C84.5443 27.702 84.601 28.0413 84.7301 28.3555C84.8592 28.6696 85.0575 28.9506 85.31 29.1773C85.8182 29.5983 86.4618 29.82 87.121 29.8013C87.7179 29.8181 88.3004 29.6168 88.7599 29.2348C88.9958 29.0349 89.1811 28.7819 89.3008 28.4965C89.4204 28.2111 89.471 27.9014 89.4483 27.5927C89.4555 27.3118 89.4053 27.0324 89.3008 26.7717C89.1978 26.5277 89.0627 26.2985 88.8993 26.0902L88.678 25.8439C88.5942 25.7493 88.5226 25.6444 88.4649 25.5319C88.4113 25.4194 88.3859 25.2953 88.3912 25.1707C88.4016 24.9719 88.4669 24.7799 88.5797 24.6161C88.6926 24.4523 88.8486 24.3231 89.0304 24.2429C89.5343 23.9763 90.0999 23.8487 90.6693 23.8734C91.1137 23.8281 91.5627 23.8779 91.9865 24.0194C92.4103 24.1609 92.7993 24.391 93.1277 24.6945C93.6514 25.4029 93.8964 26.2797 93.816 27.1576V29.8423C91.2071 30.506 88.691 31.4934 86.3261 32.7816C85.6047 33.1574 85.0001 33.7243 84.5781 34.4207C84.1562 35.1171 83.9332 35.9161 83.9333 36.7308C83.8872 37.3012 83.9827 37.8742 84.2115 38.3985C84.4403 38.9229 84.7952 39.3823 85.2444 39.7358C86.0555 40.3534 87.0447 40.6905 88.0634 40.6964C88.8478 40.6895 89.6257 40.5536 90.3661 40.2941C91.6739 39.8612 92.8576 39.1175 93.816 38.1265C93.8891 38.7174 94.1057 39.2812 94.447 39.7686C94.7434 40.1042 95.1144 40.3654 95.53 40.5308C95.9457 40.6963 96.3944 40.7614 96.8398 40.721C97.4364 40.7229 98.0281 40.6143 98.5853 40.4008C99.5149 40.0213 100.335 39.4144 100.97 38.6356L100.413 37.8638C100.247 38.03 100.056 38.1686 99.8473 38.2743ZM93.7259 36.5173C93.4191 36.8876 93.076 37.2259 92.7016 37.5272C92.224 37.8726 91.6516 38.0618 91.0626 38.0691C90.8234 38.0619 90.5887 38.0023 90.3749 37.8945C90.1611 37.7867 89.9735 37.6333 89.8252 37.4451C89.4292 36.9208 89.237 36.27 89.2844 35.6142C89.2855 34.9396 89.4593 34.2766 89.7893 33.6887C90.1193 33.1007 90.5944 32.6075 91.1692 32.2562C91.9547 31.7208 92.8328 31.3365 93.7587 31.1232L93.7259 36.5173Z" fill="black"/>
<path d="M116.318 38.3071C115.225 37.9003 114.067 37.6971 112.901 37.7077H110.508H109.148C108.558 37.7077 108.173 37.7078 107.993 37.6421C107.686 37.6072 107.399 37.4748 107.173 37.2644C106.969 37.0406 106.861 36.7461 106.87 36.4434C106.872 36.2083 106.929 35.9769 107.036 35.7675C107.142 35.558 107.296 35.3763 107.485 35.2365C107.804 34.9462 108.194 34.7451 108.615 34.6535C108.785 34.6423 108.954 34.6423 109.123 34.6535C109.238 34.6535 109.484 34.6535 109.853 34.6535C111.315 34.696 112.771 34.462 114.147 33.9638C115.14 33.6518 116 33.0178 116.594 32.1616C117.187 31.3054 117.48 30.2757 117.425 29.2347C117.431 28.5373 117.3 27.8454 117.04 27.1985C116.784 26.5827 116.408 26.0244 115.933 25.5565H118.916V23.5942H114.065C113.535 23.3721 112.986 23.1964 112.426 23.0688C111.645 22.8984 110.848 22.8157 110.049 22.8224C108.098 22.7185 106.171 23.2991 104.6 24.4645C103.965 24.9535 103.452 25.5845 103.104 26.3073C102.755 27.0301 102.58 27.8245 102.592 28.6271C102.561 29.863 102.967 31.0702 103.74 32.0344C104.551 32.9971 105.591 33.7397 106.763 34.1938V34.4483C105.794 34.7929 104.894 35.3102 104.108 35.9754C103.69 36.2777 103.349 36.6747 103.112 37.1341C102.876 37.5935 102.751 38.1023 102.748 38.6191C102.732 39.0079 102.802 39.3955 102.952 39.7544C103.102 40.1133 103.329 40.4348 103.617 40.6963C104.088 41.0566 104.618 41.3342 105.182 41.5173V41.7636C104.312 41.8269 103.499 42.2169 102.904 42.8556C102.506 43.3128 102.275 43.8917 102.248 44.4977C102.248 45.8551 103.278 46.8158 105.338 47.3795C106.796 47.7393 108.294 47.9077 109.795 47.8804C111.573 47.9305 113.347 47.692 115.048 47.1743C117.687 46.2794 118.998 44.6291 118.998 42.2481C119.054 41.3859 118.82 40.5298 118.335 39.8158C117.849 39.1017 117.14 38.5707 116.318 38.3071ZM108.066 25.1706C108.213 24.7826 108.482 24.4532 108.833 24.2324C109.183 24.0116 109.596 23.9115 110.009 23.9473C110.4 23.9233 110.79 24.0198 111.125 24.2237C111.46 24.4277 111.726 24.7294 111.885 25.0885C112.321 26.2432 112.508 27.4771 112.434 28.7093C112.49 29.9164 112.315 31.1231 111.918 32.2643C111.773 32.6408 111.512 32.9613 111.173 33.1797C110.834 33.3981 110.435 33.5031 110.033 33.4795C109.552 33.4898 109.082 33.3314 108.705 33.0316C108.328 32.7317 108.067 32.3093 107.968 31.8374C107.686 30.8143 107.564 29.7534 107.607 28.6928C107.55 27.5007 107.705 26.308 108.066 25.1706ZM113.549 46.3204C112.439 46.5569 111.306 46.6643 110.172 46.6406C108.966 46.707 107.761 46.4847 106.657 45.992C106.304 45.8429 106.001 45.5946 105.786 45.2769C105.571 44.9593 105.452 44.586 105.444 44.2021C105.447 43.7417 105.606 43.296 105.895 42.9377C106.135 42.6326 106.41 42.357 106.714 42.1167H112.754C113.639 42.0396 114.528 42.2042 115.327 42.5929C115.558 42.7513 115.746 42.9666 115.87 43.2181C115.995 43.4697 116.054 43.7491 116.04 44.0297C116.048 45.1545 115.212 45.9099 113.549 46.3204Z" fill="black"/>
<path d="M127.43 37.2074V23.1924H120.367V24.0791C120.913 24.1277 121.433 24.3394 121.858 24.6867C122.158 25.1388 122.292 25.6819 122.235 26.222V37.0596C122.271 37.3728 122.241 37.6899 122.148 37.991C122.055 38.292 121.9 38.5704 121.694 38.8084C121.301 39.0828 120.844 39.2498 120.367 39.2929V40.1796H129.135V39.2929C128.646 39.2321 128.181 39.0485 127.783 38.7592C127.484 38.3007 127.359 37.7502 127.43 37.2074Z" fill="black"/>
<path d="M147.794 37.2068V28.2904C147.794 26.2378 147.36 24.8038 146.491 23.9882C145.47 23.1162 144.15 22.6774 142.812 22.7649C141.746 22.7535 140.7 23.0562 139.804 23.6352C138.91 24.2039 138.148 24.9568 137.567 25.8437V23.1918H130.593V24.0785C131.17 24.0998 131.722 24.3169 132.159 24.6943C132.463 25.1541 132.599 25.7053 132.544 26.2543V37.0919C132.581 37.39 132.558 37.6925 132.476 37.9816C132.394 38.2707 132.256 38.5405 132.068 38.775C131.64 39.1028 131.123 39.2944 130.585 39.3251V40.2118H139.452V39.3251C138.966 39.2647 138.503 39.081 138.108 38.7914C137.801 38.3362 137.673 37.7838 137.747 37.2397V27.3873C138.083 26.8616 138.498 26.3908 138.977 25.9915C139.455 25.5496 140.08 25.3009 140.73 25.2936C141.101 25.2613 141.473 25.3568 141.782 25.5643C142.092 25.7717 142.322 26.0788 142.435 26.4349C142.633 27.0435 142.72 27.6835 142.689 28.3232V37.2561C142.758 37.7999 142.63 38.3508 142.328 38.8078C141.93 39.0987 141.465 39.2825 140.976 39.3415V40.2282H149.63V39.3415C149.122 39.3136 148.631 39.146 148.212 38.8571C148.034 38.625 147.905 38.3589 147.833 38.0751C147.761 37.7914 147.748 37.4959 147.794 37.2068Z" fill="black"/>
<path d="M165.208 35.5651C164.685 36.1727 164.1 36.7231 163.462 37.2071C162.75 37.7349 161.889 38.0224 161.004 38.0282C159.195 38.0282 157.928 37.0129 157.201 34.9822C156.779 33.7452 156.536 32.454 156.48 31.1479H165.888C165.872 30.6587 165.828 30.1707 165.757 29.6865C165.646 28.5483 165.341 27.4375 164.855 26.4024C164.307 25.3022 163.453 24.3841 162.397 23.7586C161.364 23.1311 160.179 22.8016 158.971 22.8062C157.951 22.7934 156.939 22.9958 156.002 23.4004C155.064 23.8049 154.222 24.4025 153.53 25.1544C152.022 26.7253 151.269 28.9147 151.269 31.7226C151.269 34.859 152.088 37.1333 153.645 38.5619C155.01 39.8998 156.833 40.666 158.742 40.7048C159.895 40.7285 161.038 40.4899 162.085 40.0069C163.752 39.1125 165.127 37.7556 166.043 36.0988L165.208 35.5651ZM157.013 25.4089C157.124 24.9724 157.38 24.5868 157.739 24.3153C158.098 24.0437 158.538 23.9024 158.988 23.9146C159.401 23.8857 159.812 23.9984 160.153 24.2341C160.494 24.4698 160.745 24.8145 160.864 25.2119C161.257 26.6974 161.428 28.2329 161.373 29.7686H156.407C156.39 28.2937 156.592 26.8246 157.005 25.4089H157.013Z" fill="black"/>
<path d="M80.7783 38.8325C80.5079 38.6026 80.3686 38.0607 80.3686 37.1904V27.9127C80.3686 26.1229 79.8742 24.8147 78.8853 23.9882C77.931 23.1731 76.7139 22.7326 75.46 22.7485C74.2835 22.7481 73.1367 23.1186 72.1821 23.8076C71.4279 24.3528 70.7547 25.0024 70.1826 25.737H69.9368C69.6429 25.0064 69.2022 24.3441 68.6421 23.7912C67.6601 23.0409 66.441 22.6706 65.2085 22.7485C63.7484 22.7375 62.328 23.2239 61.18 24.1279C60.0321 25.032 59.2248 26.2999 58.8904 27.7239L58.4807 27.5105C58.6428 26.246 59.1536 25.0518 59.9557 24.0621V23.1754H52.892V24.0621C53.439 24.1087 53.9591 24.3206 54.3834 24.6697C54.6876 25.1201 54.8213 25.6646 54.7603 26.205V37.0426C54.7961 37.3558 54.7664 37.673 54.6733 37.974C54.5802 38.2751 54.4257 38.5534 54.2195 38.7914C53.8273 39.0672 53.3693 39.2343 52.892 39.2759V40.1626H61.6848V39.2759C61.1959 39.2169 60.7304 39.0331 60.3327 38.7422C60.0304 38.2851 59.9024 37.7343 59.9721 37.1904V27.6582C59.9721 26.9932 61.2833 25.1951 63.1025 25.1377C63.4368 25.1041 63.7733 25.1744 64.0665 25.3389C64.3596 25.5033 64.5952 25.7541 64.7414 26.0572C65.041 26.7562 65.1783 27.5141 65.1429 28.274V37.2069C65.1429 38.0279 65.0036 38.5862 64.725 38.8489C64.3175 39.1354 63.8373 39.3005 63.3401 39.3251V40.2119H71.9527V39.3251C71.4667 39.2648 71.0041 39.0811 70.6088 38.7914C70.3022 38.3362 70.1739 37.7838 70.2482 37.2397V27.3873C70.2482 27.1574 70.5924 26.7551 71.2971 26.1722C71.8433 25.6533 72.5537 25.3424 73.3048 25.2937C73.6285 25.2514 73.9575 25.307 74.2495 25.4533C74.5415 25.5995 74.7832 25.8298 74.9437 26.1147C75.2578 26.8154 75.401 27.5808 75.3617 28.3479V37.2808C75.4396 37.8426 75.2987 38.4129 74.9683 38.8736C74.5575 39.168 74.0714 39.3389 73.567 39.3662V40.2529H82.3025V39.3662C81.7517 39.3501 81.2193 39.1636 80.7783 38.8325Z" fill="black"/>
<path d="M121.71 12.6996C122.325 12.0777 123.135 11.6887 124.004 11.599C124.872 11.5093 125.745 11.7245 126.473 12.2078C127.2 12.6912 127.738 13.4126 127.994 14.2491C128.25 15.0855 128.208 15.9849 127.876 16.7939C127.543 17.6028 126.941 18.271 126.171 18.6844C125.402 19.0977 124.513 19.2307 123.656 19.0604C122.8 18.8901 122.029 18.4273 121.475 17.7508C120.922 17.0744 120.62 16.2263 120.621 15.3515C120.613 14.8585 120.706 14.3693 120.894 13.9134C121.081 13.4575 121.359 13.0445 121.71 12.6996Z" fill="#4C3FFF"/>
</svg>
