<svg width="59" height="58" viewBox="0 0 59 58" fill="none" xmlns="http://www.w3.org/2000/svg">
<path d="M18.5541 17.8118C20.722 17.8118 22.4793 16.051 22.4793 13.879C22.4793 11.707 20.722 9.94629 18.5541 9.94629C16.3863 9.94629 14.6289 11.707 14.6289 13.879C14.6289 16.051 16.3863 17.8118 18.5541 17.8118Z" fill="#4C3FFF"/>
<path d="M43.695 38.4847C43.3312 37.9951 43.1751 37.3813 43.2607 36.777V27.0641C43.2607 25.1867 42.7417 23.8183 41.7037 22.959C40.708 22.1023 39.435 21.6383 38.1226 21.6536C36.8837 21.6504 35.6757 22.0414 34.6727 22.7701C33.8841 23.3407 33.1805 24.0208 32.5831 24.7899H32.3209C32.0155 24.0203 31.5521 23.3238 30.9605 22.7455C29.9303 21.9623 28.654 21.5749 27.3631 21.6536C25.8331 21.6433 24.345 22.1545 23.1433 23.1034C21.9416 24.0523 21.0976 25.3824 20.75 26.8753L20.3239 26.6454C20.4936 25.3121 21.0362 24.054 21.8891 23.0164V22.0887H14.5139V23.0164C15.0866 23.0671 15.6314 23.2872 16.0791 23.6487C16.3992 24.1325 16.5386 24.714 16.4724 25.2907V36.6538C16.5085 36.9815 16.4768 37.3132 16.3796 37.6281C16.2823 37.9431 16.1215 38.2347 15.907 38.4847C15.4947 38.7728 15.0145 38.9483 14.5139 38.9938V39.9133H23.7083V38.9938C23.1948 38.9309 22.7063 38.7358 22.2906 38.4273C21.9708 37.9436 21.8369 37.3602 21.9137 36.7852V26.7686C21.9137 26.0789 23.2904 24.1905 25.1915 24.133C25.5413 24.1022 25.8921 24.1783 26.1979 24.3512C26.5036 24.5242 26.7499 24.7859 26.9042 25.1019C27.2148 25.8325 27.3576 26.6238 27.3221 27.4172V36.777C27.405 37.376 27.249 37.9837 26.8878 38.4683C26.4594 38.7656 25.9576 38.9389 25.4373 38.9691V39.8887H34.4514V38.9691C33.9403 38.9068 33.4544 38.7114 33.042 38.4026C32.7179 37.9208 32.5836 37.3358 32.665 36.7605V26.4401C32.665 26.202 33.0256 25.7751 33.7631 25.1676C34.3219 24.6319 35.0488 24.3069 35.82 24.248C36.1502 24.2096 36.4844 24.2665 36.7835 24.4119C37.0825 24.5574 37.3339 24.7853 37.508 25.069C37.839 25.8027 37.9907 26.6048 37.9506 27.409V36.7688C38.0234 37.3494 37.874 37.936 37.5326 38.4108C37.0983 38.7109 36.5919 38.8894 36.0658 38.9281V39.8476H45.2192V38.9281C44.6794 38.9287 44.1506 38.7749 43.695 38.4847Z" fill="black"/>
<path d="M47.5385 43.7148H12.1213V46.1451H47.5385V43.7148Z" fill="#4C3FFF"/>
</svg>
